<svg width="40" height="41" viewBox="0 0 40 41" fill="none" xmlns="http://www.w3.org/2000/svg">
<rect x="1" y="1" width="37.224" height="38.32" rx="7" stroke="#183568" stroke-width="2"/>
<g clip-path="url(#clip0_2807_6187)">
<path d="M12.1019 5.01527C10.9772 5.01527 10.0568 5.9473 10.0568 7.0869V7.91657H8.1525C6.42567 7.91625 5.02344 9.34052 5.02344 11.0897V30.6428C5.02344 32.392 6.42567 33.8175 8.1525 33.8175L30.7594 33.8162C32.4862 33.8162 33.8922 32.392 33.8922 30.6415V11.0897C33.8922 9.34052 32.4862 7.91625 30.7594 7.91625H28.8586L28.8573 7.0853C28.8573 5.94602 27.9335 5.01367 26.8088 5.01367C25.6841 5.01367 24.7649 5.9457 24.7649 7.0853L24.7662 7.91625H14.147V7.0853C14.147 5.94602 13.2269 5.01367 12.1019 5.01367V5.01527ZM12.1019 5.9297C12.7432 5.9297 13.2439 6.43698 13.2439 7.08658V9.83148C13.2439 10.4811 12.7432 10.9884 12.1019 10.9884C11.4606 10.9884 10.9598 10.4798 10.9598 9.83148V7.08658C10.9598 6.43698 11.4606 5.9297 12.1019 5.9297ZM26.8088 5.9297C27.45 5.9297 27.9546 6.43698 27.9546 7.08658V9.83148C27.9546 10.4811 27.45 10.9884 26.8088 10.9884C26.1675 10.9884 25.6667 10.4798 25.6667 9.83148L25.668 8.37459V7.0853C25.668 6.4357 26.1687 5.92843 26.81 5.92843L26.8088 5.9297ZM8.1525 8.82973H10.0568V9.83052C10.0568 10.9698 10.9769 11.9021 12.1019 11.9021C13.2269 11.9021 14.147 10.9701 14.147 9.83052V8.82973H24.7652V9.83052C24.7652 10.9698 25.6841 11.9021 26.8091 11.9021C27.9341 11.9021 28.8576 10.9701 28.8576 9.83052V8.82973H30.7584C32.0019 8.82973 32.9895 9.83052 32.9895 11.0897V14.001H5.92616V11.0897C5.92616 9.8302 6.91034 8.82973 8.15376 8.82973H8.1525ZM5.9249 14.9141H32.9892V30.6428C32.9892 31.9023 32.0012 32.9028 30.7581 32.9028L8.1525 32.9015C6.90908 32.9015 5.9249 31.9007 5.9249 30.6415V14.9141ZM10.8831 17.3865C10.1183 17.3865 9.48811 18.0211 9.48811 18.7957V21.4568C9.48811 22.2315 10.1196 22.8674 10.8831 22.8674H13.5139C14.2786 22.8674 14.9089 22.2315 14.9089 21.4568V18.7957C14.9089 18.0211 14.2786 17.3865 13.5139 17.3865H10.8831ZM18.1415 17.3865C17.3767 17.3865 16.7465 18.0211 16.7465 18.7957V21.4568C16.7465 22.2315 17.378 22.8674 18.1415 22.8674H20.7723C21.537 22.8674 22.1673 22.2315 22.1673 21.4568V18.7957C22.1673 18.0211 21.537 17.3865 20.7723 17.3865H18.1415ZM25.3974 17.3865C24.6326 17.3865 24.0049 18.0211 24.0049 18.7957V21.4568C24.0049 22.2315 24.6326 22.8674 25.3974 22.8674H28.0307C28.7954 22.8674 29.4231 22.2315 29.4231 21.4568V18.7957C29.4231 18.0211 28.7954 17.3865 28.0307 17.3865H25.3974ZM10.884 18.3013H13.5148C13.7962 18.3013 14.0071 18.5136 14.0071 18.7961V21.4572C14.0071 21.7396 13.7962 21.9532 13.5148 21.9532H10.884C10.6027 21.9532 10.3908 21.7396 10.3908 21.4572V18.7961C10.3908 18.5136 10.603 18.3013 10.884 18.3013ZM18.1424 18.3013H20.7732C21.0546 18.3013 21.2655 18.5136 21.2655 18.7961V21.4572C21.2655 21.7396 21.0546 21.9532 20.7732 21.9532H18.1424C17.8611 21.9532 17.6502 21.7396 17.6502 21.4572L17.6489 18.7961C17.6489 18.5136 17.8598 18.3013 18.1412 18.3013H18.1424ZM25.3983 18.3013H28.0317C28.313 18.3013 28.5248 18.5136 28.5248 18.7961V21.4572C28.5248 21.7396 28.3127 21.9532 28.0317 21.9532H25.3983C25.117 21.9532 24.9086 21.7396 24.9086 21.4572L24.9073 18.7961C24.9073 18.5136 25.1157 18.3013 25.3971 18.3013H25.3983ZM10.8837 24.7532C10.119 24.7532 9.48874 25.3928 9.48874 26.1662V28.8238C9.48874 29.5985 10.1202 30.2343 10.8837 30.2343H13.5145C14.2793 30.2343 14.9095 29.5985 14.9095 28.8238V26.1662C14.9095 25.3916 14.2793 24.7532 13.5145 24.7532H10.8837ZM18.1421 24.7532C17.3774 24.7532 16.7471 25.3928 16.7471 26.1662V28.8238C16.7471 29.5985 17.3786 30.2343 18.1421 30.2343H20.7729C21.5377 30.2343 22.1679 29.5985 22.1679 28.8238V26.1662C22.1679 25.3916 21.5377 24.7532 20.7729 24.7532H18.1421ZM25.398 24.7532C24.6333 24.7532 24.0056 25.3928 24.0056 26.1662V28.8238C24.0056 29.5985 24.6333 30.2343 25.398 30.2343H28.0313C28.7961 30.2343 29.4238 29.5985 29.4238 28.8238V26.1662C29.4238 25.3916 28.7961 24.7532 28.0313 24.7532H25.398ZM10.8834 25.6663H13.5142C13.7955 25.6663 14.0065 25.8838 14.0065 26.1659V28.8235C14.0065 29.1059 13.7955 29.3221 13.5142 29.3221H10.8834C10.6021 29.3221 10.3902 29.1059 10.3902 28.8235V26.1659C10.3902 25.8835 10.6024 25.6663 10.8834 25.6663ZM18.1418 25.6663H20.7726C21.0539 25.6663 21.2649 25.8838 21.2649 26.1659V28.8235C21.2649 29.1059 21.0539 29.3221 20.7726 29.3221L18.1418 29.3234C17.8605 29.3234 17.6496 29.1072 17.6496 28.8248V26.1672C17.6496 25.8848 17.8605 25.6676 18.1418 25.6676V25.6663ZM25.3977 25.6663H28.031C28.3123 25.6663 28.5242 25.8838 28.5242 26.1659V28.8235C28.5242 29.1059 28.312 29.3221 28.031 29.3221H25.3977C25.1164 29.3221 24.908 29.1059 24.908 28.8235V26.1659C24.908 25.8835 25.1164 25.6663 25.3977 25.6663Z" fill="#183568" stroke="#183568" stroke-miterlimit="10"/>
</g>
<defs>
<clipPath id="clip0_2807_6187">
<rect width="29.1845" height="29.1234" fill="white" transform="translate(4.86523 4.854)"/>
</clipPath>
</defs>
</svg>
