<svg width="40" height="41" viewBox="0 0 40 41" fill="none" xmlns="http://www.w3.org/2000/svg">
<rect x="1" y="1" width="37.224" height="38.32" rx="7" stroke="#183568" stroke-width="2"/>
<g clip-path="url(#clip0_2807_6180)">
<path fill-rule="evenodd" clip-rule="evenodd" d="M19.4577 4C10.8671 4 3.89258 11.1694 3.89258 20C3.89258 28.8306 10.8671 36 19.4577 36C28.0483 36 35.0228 28.8306 35.0228 20C35.0228 11.1694 28.0483 4 19.4577 4ZM20.2341 5.61783V6.52994C20.2341 6.96984 19.887 7.32808 19.4577 7.32808C19.0284 7.32808 18.6812 6.96984 18.6812 6.52994V5.61783C16.694 5.72902 14.8176 6.26794 13.1342 7.146L13.5777 7.93441C13.793 8.31594 13.6649 8.80448 13.2938 9.02443C12.9213 9.24577 12.446 9.11547 12.232 8.73256L11.7895 7.94414C10.1748 9.03416 8.79092 10.4577 7.72918 12.118L8.49616 12.5728C8.86866 12.7928 8.99542 13.2813 8.7801 13.6642C8.56613 14.0457 8.09086 14.1774 7.71971 13.9561L6.95273 13.5002C6.09854 15.2306 5.57426 17.1594 5.46609 19.2022H6.35341C6.78135 19.2022 7.12985 19.5591 7.12985 20.0003C7.12985 20.4416 6.78135 20.7985 6.35341 20.7985H5.46609C5.57426 22.8413 6.09854 24.7701 6.95273 26.5005L7.71971 26.0446C8.09086 25.8233 8.56613 25.955 8.7801 26.3365C8.99542 26.7194 8.86866 27.2079 8.49616 27.4279L7.72918 27.8827C8.78956 29.5426 10.1745 30.9651 11.7895 32.0566L12.232 31.2678C12.446 30.8849 12.9213 30.7546 13.2938 30.9759C13.6649 31.1959 13.793 31.6844 13.5777 32.0659L13.1342 32.8547C14.8176 33.7328 16.694 34.2717 18.6812 34.3829V33.4708C18.6812 33.0309 19.0284 32.6726 19.4577 32.6726C19.887 32.6726 20.2341 33.0309 20.2341 33.4708V34.3829C22.2214 34.2717 24.0978 33.7328 25.7811 32.8547L25.3376 32.0659C25.1223 31.6844 25.2504 31.1959 25.6216 30.9759C25.9941 30.7546 26.4693 30.8849 26.6833 31.2678L27.1258 32.0566C28.7405 30.9665 30.1244 29.5429 31.1862 27.8827L30.4188 27.4279C30.0463 27.2079 29.9196 26.7194 30.1349 26.3365C30.3489 25.955 30.8241 25.8233 31.1953 26.0446L31.9626 26.5005C32.8168 24.7701 33.3411 22.8413 33.4493 20.7985H32.5619C32.134 20.7985 31.7855 20.4416 31.7855 20.0003C31.7855 19.5591 32.134 19.2022 32.5619 19.2022H33.4493C33.3411 17.1594 32.8168 15.2306 31.9626 13.5002L31.1953 13.9561C30.8241 14.1774 30.3489 14.0457 30.1349 13.6642C29.9196 13.2813 30.0463 12.7928 30.4188 12.5728L31.1862 12.118C30.1258 10.4581 28.7409 9.03555 27.1258 7.94414L26.6833 8.73256C26.4693 9.11547 25.9941 9.24577 25.6216 9.02443C25.2504 8.80448 25.1223 8.31594 25.3376 7.93441L25.7811 7.146C24.0978 6.26794 22.2214 5.72902 20.2341 5.61783ZM18.6812 19.6755L13.4932 25.1495C13.1947 25.4657 13.2015 25.972 13.5077 26.2788C13.8153 26.587 14.3078 26.5801 14.6063 26.2639L20.0147 20.5563C20.0861 20.4802 20.1401 20.3933 20.177 20.3013L20.1783 20.2999C20.2138 20.2061 20.2338 20.1056 20.2338 20V9.46989C20.2338 9.02999 19.8866 8.67175 19.4573 8.67175C19.028 8.67175 18.6809 9.02999 18.6809 9.46989V19.6758L18.6812 19.6755Z" fill="#183568"/>
</g>
<defs>
<clipPath id="clip0_2807_6180">
<rect width="31.1302" height="32" fill="white" transform="translate(3.89258 4)"/>
</clipPath>
</defs>
</svg>
