<svg width="41" height="41" viewBox="0 0 41 41" fill="none" xmlns="http://www.w3.org/2000/svg">
<path d="M9.6 0C4.30912 0 0 4.30912 0 9.6V30.72C0 36.0109 4.30912 40.32 9.6 40.32H30.72C36.0109 40.32 40.32 36.0109 40.32 30.72V9.6C40.32 4.30912 36.0109 0 30.72 0H9.6ZM9.6 1.92H30.72C34.9734 1.92 38.4 5.34656 38.4 9.6V30.72C38.4 34.9734 34.9734 38.4 30.72 38.4H9.6C5.34656 38.4 1.92 34.9734 1.92 30.72V9.6C1.92 5.34656 5.34656 1.92 9.6 1.92ZM8.64 10.56C7.06083 10.56 5.76 11.8608 5.76 13.44V26.88C5.76 28.4592 7.06083 29.76 8.64 29.76H31.68C33.2592 29.76 34.56 28.4592 34.56 26.88V13.44C34.56 11.8608 33.2592 10.56 31.68 10.56H8.64ZM9.0375 12.48H31.2806L22.7306 21.0169C21.2975 22.4477 19.005 22.4475 17.5725 21.015L9.0375 12.48ZM32.64 13.8356V26.4844L26.3062 20.16L32.64 13.8356ZM7.68 13.8375L14.0025 20.16L7.68 26.4825V13.8375ZM24.9487 21.5156L31.2825 27.84H9.0375L15.36 21.5175L16.215 22.3725C18.3806 24.5381 21.9193 24.5397 24.0863 22.3762L24.9487 21.5156Z" fill="#183568"/>
</svg>
