<svg width="40" height="40" viewBox="0 0 40 40" fill="none" xmlns="http://www.w3.org/2000/svg">
<path d="M9.46863 0C4.25015 0 0 4.25015 0 9.46863V30.2996C0 35.5181 4.25015 39.7682 9.46863 39.7682H30.2996C35.5181 39.7682 39.7682 35.5181 39.7682 30.2996V9.46863C39.7682 4.25015 35.5181 0 30.2996 0H9.46863ZM9.46863 1.89373H30.2996C34.4948 1.89373 37.8745 5.2734 37.8745 9.46863V30.2996C37.8745 34.4948 34.4948 37.8745 30.2996 37.8745H9.46863C5.2734 37.8745 1.89373 34.4948 1.89373 30.2996V9.46863C1.89373 5.2734 5.2734 1.89373 9.46863 1.89373ZM13.3023 6.67058C11.3657 6.58689 9.89579 7.32274 8.97116 8.20738C8.50884 8.6497 8.17506 9.12297 7.94662 9.56479C7.71819 10.0066 7.57305 10.3709 7.57305 10.8445C7.57305 10.8023 7.56265 11.0238 7.55641 11.281C7.55016 11.5382 7.5513 11.8848 7.5749 12.3037C7.62221 13.1413 7.76418 14.2744 8.1408 15.6177C8.89405 18.3043 10.5901 21.8286 14.2695 25.508C17.9489 29.1873 21.473 30.8832 24.1598 31.6367C25.5032 32.0134 26.6361 32.1552 27.4738 32.2026C27.8927 32.2263 28.2374 32.2273 28.4947 32.2211C28.7519 32.2148 28.975 32.2044 28.9329 32.2044C29.4066 32.2044 29.7709 32.0593 30.2127 31.8309C30.6545 31.6024 31.1278 31.2686 31.5701 30.8063C32.4547 29.8817 33.1906 28.4118 33.1069 26.4752C33.0672 25.5515 32.5544 24.7336 31.7976 24.2486C31.2127 23.8738 30.3048 23.2921 29.1197 22.5342C27.7448 21.6558 25.9862 21.593 24.5519 22.3789L24.6332 22.3382L23.5181 22.8172L23.4367 22.8745C23.1657 23.0648 22.83 23.1001 22.525 22.9725C21.6707 22.6153 20.3395 21.9133 19.1018 20.6756C17.8642 19.4379 17.1622 18.1068 16.805 17.2525C16.6774 16.9475 16.7127 16.6118 16.903 16.3408L16.9603 16.2594L17.4393 15.1443L17.3986 15.2256C18.1843 13.7917 18.1232 12.0331 17.2433 10.6578C16.4854 9.47271 15.9037 8.56477 15.5289 7.97991C15.0439 7.2231 14.226 6.71029 13.3023 6.67058ZM13.2209 8.56245C13.4866 8.57387 13.7608 8.72926 13.9348 9.00075C14.3099 9.58621 14.892 10.4946 15.6491 11.6786C16.1516 12.464 16.1869 13.4962 15.7379 14.3158L15.7157 14.3564L15.2589 15.4235L15.3532 15.2515C14.7936 16.0485 14.6812 17.0836 15.0573 17.983C15.4841 19.0035 16.3002 20.5518 17.7629 22.0146C19.2257 23.4773 20.774 24.2934 21.7945 24.7201C22.6939 25.0963 23.729 24.9839 24.526 24.4243L24.354 24.5186L25.421 24.0618L25.4617 24.0396C26.2809 23.5907 27.3131 23.6281 28.0989 24.1302V24.1284C29.2829 24.8855 30.1913 25.4675 30.7767 25.8427C31.0482 26.0167 31.2036 26.2909 31.215 26.5565C31.2772 27.9945 30.7777 28.8948 30.2016 29.497C29.9135 29.7981 29.6011 30.0166 29.3435 30.1498C29.0859 30.283 28.8394 30.3107 28.9329 30.3107C28.7593 30.3107 28.6678 30.3221 28.4503 30.3274C28.2327 30.3327 27.9411 30.3329 27.5811 30.3126C26.861 30.2718 25.8671 30.1489 24.6702 29.8132C22.2764 29.1419 19.0675 27.6281 15.6084 24.169C12.1494 20.71 10.6353 17.5008 9.96425 15.1073C9.62872 13.9105 9.50559 12.9164 9.46493 12.1964C9.4446 11.8364 9.44486 11.5447 9.45014 11.3272C9.45544 11.1097 9.46678 11.0183 9.46678 10.8445C9.46678 10.938 9.49447 10.6916 9.62767 10.434C9.76088 10.1763 9.9794 9.86396 10.2805 9.57589C10.8827 8.99975 11.783 8.50032 13.2209 8.56245Z" fill="#183568"/>
</svg>
