<svg width="43" height="45" viewBox="0 0 43 45" fill="none" xmlns="http://www.w3.org/2000/svg">
<path d="M42.1733 18.4522L36.6539 17.5248C36.3308 16.3862 35.8891 15.2918 35.3362 14.256L38.5582 9.53568C38.8187 9.15456 38.7739 8.6352 38.4536 8.30496L34.8216 4.57344C34.4975 4.24128 33.9876 4.19808 33.6159 4.4736L29.093 7.81536C28.076 7.23744 27.002 6.77856 25.8879 6.44544L24.925 0.79488C24.8466 0.336 24.459 0 24.0051 0H18.8686C18.411 0 18.0206 0.3408 17.9469 0.80544L17.0541 6.42528C15.9334 6.75648 14.8575 7.21056 13.8442 7.7808L9.33345 4.4688C8.96082 4.1952 8.45371 4.23936 8.12965 4.57056L4.49956 8.30208C4.17923 8.63136 4.1344 9.14976 4.39496 9.53088L7.56931 14.1994C7.00429 15.2506 6.55415 16.3632 6.22635 17.521L0.780745 18.4531C0.330603 18.5299 0 18.9312 0 19.3997V24.6797C0 25.1453 0.324999 25.5437 0.770472 25.6253L6.21608 26.6179C6.54201 27.7728 6.99215 28.8854 7.55903 29.9395L4.34546 34.56C4.08023 34.9411 4.12226 35.4643 4.44446 35.7974L8.07548 39.5328C8.39581 39.8621 8.90105 39.9082 9.27182 39.6403L13.8199 36.3658C14.8407 36.9427 15.9194 37.4006 17.0372 37.7328L17.9487 43.3594C18.0225 43.8211 18.4119 44.16 18.8686 44.16H24.0051C24.4581 44.16 24.8456 43.8259 24.9241 43.368L25.9 37.7136C27.0198 37.3747 28.0928 36.9139 29.1033 36.336L33.6841 39.6394C34.0558 39.9091 34.5601 39.8621 34.8814 39.5328L38.5124 35.7974C38.8355 35.4643 38.8776 34.9392 38.6095 34.5571L35.3427 29.8944C35.8965 28.8576 36.3364 27.7613 36.6567 26.6227L42.1836 25.6253C42.6309 25.5446 42.9559 25.1453 42.9559 24.6797V19.3997C42.9569 18.9293 42.6253 18.528 42.1733 18.4522ZM21.478 28.8C17.8675 28.8 14.9406 25.7914 14.9406 22.08C14.9406 18.3686 17.8675 15.36 21.478 15.36C25.0884 15.36 28.0153 18.3686 28.0153 22.08C28.0153 25.7914 25.0884 28.8 21.478 28.8Z" fill="#183568"/>
</svg>
