<svg width="48" height="48" viewBox="0 0 48 48" fill="none" xmlns="http://www.w3.org/2000/svg">
<path d="M24.0009 0.959961C13.9734 0.959961 5.76089 9.17246 5.76089 19.2C5.76089 20.2125 5.86589 21.1537 6.03089 22.08H3.84089C3.81089 22.08 3.78089 22.08 3.75089 22.08C3.25589 22.125 2.87714 22.5412 2.88089 23.04V46.08C2.88089 46.6087 3.31214 47.04 3.84089 47.04H44.1609C44.6896 47.04 45.1209 46.6087 45.1209 46.08V23.04C45.1209 22.5112 44.6896 22.08 44.1609 22.08H41.9709C42.1359 21.1537 42.2409 20.2125 42.2409 19.2C42.2409 9.17246 34.0284 0.959961 24.0009 0.959961ZM24.0009 2.87996C32.9821 2.87996 40.3209 10.2187 40.3209 19.2C40.3209 20.19 40.2046 21.135 40.0209 22.08H30.0909C30.5034 21.1837 30.7209 20.2012 30.7209 19.2C30.7209 15.51 27.6909 12.48 24.0009 12.48C20.3109 12.48 17.2809 15.51 17.2809 19.2C17.2809 20.235 17.5246 21.2025 17.9409 22.08H7.98089C7.79714 21.135 7.68089 20.19 7.68089 19.2C7.68089 10.2187 15.0196 2.87996 24.0009 2.87996ZM24.0009 14.4C26.6446 14.4 28.8009 16.5562 28.8009 19.2C28.8009 20.295 28.4446 21.2625 27.8109 22.08H20.1609C19.5721 21.2362 19.2009 20.2312 19.2009 19.2C19.2009 16.5562 21.3571 14.4 24.0009 14.4ZM24.0009 17.28C22.9396 17.28 22.0809 18.1387 22.0809 19.2C22.0809 20.2612 22.9396 21.12 24.0009 21.12C25.0621 21.12 25.9209 20.2612 25.9209 19.2C25.9209 18.1387 25.0621 17.28 24.0009 17.28ZM4.80089 24H6.78089C7.06214 24.15 7.39964 24.15 7.68089 24H28.2009C28.2721 24.0075 28.3396 24.0075 28.4109 24H40.3209C40.6021 24.15 40.9396 24.15 41.2209 24H43.2009V45.12H4.80089V24ZM18.0609 27.84C17.5321 27.8887 17.1421 28.3612 17.1909 28.89C17.2396 29.4187 17.7121 29.8087 18.2409 29.76H29.7609C30.1059 29.7637 30.4284 29.5837 30.6046 29.2837C30.7771 28.9837 30.7771 28.6162 30.6046 28.3162C30.4284 28.0162 30.1059 27.8362 29.7609 27.84H18.2409C18.2109 27.84 18.1809 27.84 18.1509 27.84C18.1209 27.84 18.0909 27.84 18.0609 27.84Z" fill="#183568"/>
</svg>
