<svg width="77" height="32" viewBox="0 0 77 32" fill="none" xmlns="http://www.w3.org/2000/svg">
<g clip-path="url(#clip0_2807_6132)">
<path d="M34.6368 20.696L33.5435 21.672C31.3326 23.392 26.2063 23.144 23.631 22.328C22.3433 21.92 21.4525 21.24 20.343 20.544C19.0958 21.32 17.8649 21.952 16.4315 22.328C10.9164 23.8 4.41337 22.552 0.0078125 18.936L3.63592 15.808C6.3165 18.408 12.1636 19.664 15.573 18.128C17.8001 17.12 18.0349 14.504 15.4353 13.776C13.6132 13.264 10.8759 13.456 8.8918 13.208C4.85068 12.712 1.23878 10.672 1.70039 6.11199C2.46974 -1.55201 16.0994 -0.968011 20.9261 2.35199C23.5419 -0.0160107 27.7693 -0.152011 31.1544 0.0799894C33.9403 0.271989 36.9043 1.11999 38.7508 3.27199C38.9937 3.31199 40.0465 2.08799 40.3705 1.84799C43.4884 -0.520011 48.2583 -0.480011 51.5949 1.42399C51.8783 1.58399 53.1984 2.68799 53.3442 2.51999V0.231989H58.6001V2.67999C63.7993 -1.80001 73.1935 -0.55201 76.1008 5.93599C76.3195 6.43199 76.9997 8.43199 76.9997 8.86399V13.672H60.6085C60.4546 16.616 62.3334 18.32 65.1679 18.712C68.0023 19.104 70.7072 18.216 73.0234 16.6L76.53 19.168C75.785 19.56 75.1857 20.216 74.4487 20.704C69.7516 23.808 63.1352 23.768 58.6001 20.392C58.6001 21.536 58.5758 22.808 58.4057 23.936C56.9561 33.192 43.5208 34.288 37.8842 28.184L41.982 25.584C44.4278 27.576 47.9992 28.288 50.8741 26.736C53.5142 25.312 53.2551 22.952 53.3442 20.392L51.028 21.848C48.0883 23.232 44.5007 23.312 41.5852 21.848C41.0102 21.56 40.5243 21.024 39.8926 20.848V22.984H34.6368V20.696ZM72.9829 9.85599C73.1935 1.90399 60.3412 1.89599 60.6085 9.85599H72.9829ZM34.6368 9.39199V6.71999C34.6368 6.47199 34.1751 5.54399 33.9646 5.31999C32.6121 3.89599 28.0608 4.05599 26.2549 4.54399C25.1049 4.85599 24.1088 5.52799 23.137 6.16799L20.7965 4.03999L18.6342 6.17599C17.0712 5.45599 15.6783 4.69599 13.9452 4.39199C12.0907 4.06399 7.66084 3.82399 7.02916 6.17599C6.11404 9.59199 11.8558 9.06399 13.8319 9.23999C16.2533 9.45599 18.7719 9.66399 20.6588 11.352C22.6997 10.008 24.6838 9.51199 27.1214 9.38399C29.559 9.25599 32.1586 9.49599 34.6287 9.38399L34.6368 9.39199ZM46.9707 4.39999C45.3834 4.58399 43.2616 5.58399 42.5408 7.04799C41.8201 8.51199 41.9901 12.896 42.2169 14.664C42.8567 19.72 52.7044 20 53.1984 14.368C53.3199 12.968 53.3604 8.44799 52.9311 7.28799C52.1213 5.11999 49.133 4.15199 46.9788 4.39999H46.9707ZM34.6368 13.368H26.9837C26.433 13.368 24.8214 13.928 24.376 14.312C22.5377 15.888 23.8253 18.016 25.8257 18.632C27.583 19.168 32.5879 19.344 33.8593 17.88C34.1185 17.584 34.6287 16.4 34.6287 16.048V13.376L34.6368 13.368Z" fill="#183568"/>
</g>
<defs>
<clipPath id="clip0_2807_6132">
<rect width="77" height="32" fill="white"/>
</clipPath>
</defs>
</svg>
